# xmcd
#
# Track frame offsets:
#	150
#	11083
#	20424
#	30569
#	42543
#	51197
#	64912
#	75127
#	86188
#
# Disc length: 1299 seconds
#
# Revision: 0
# Processed by: cddbd v1.5.1PL2 Copyright (c) Steve Scherf et al.
# Submitted via: dBpowerAMP V4.0
#
DISCID=6a051109
DTITLE=Canned Heat - The Classic Collection
DYEAR=2005
DGENRE=Blues Rock
TTITLE0=Spoonful
TTITLE1=Big Road Blues
TTITLE2=Rollin' and Tumblin'
TTITLE3=Got My Mojo Working
TTITLE4=Pretty Thing
TTITLE5=Louise
TTITLE6=I Got My Eyes On You
TTITLE7=Talk To Me Baby
TTITLE8=Big Road Blues
EXTD=My name is Paul Bennett, Kingwood, TX.  The CD is called "Canned Heat The Classic Collection"
EXTT0=
EXTT1=
EXTT2=
EXTT3=
EXTT4=
EXTT5=
EXTT6=
EXTT7=
EXTT8=
PLAYORDER=
